HIERARCHY
ROOT hip
{
  OFFSET 0.00112043 5.09927 -9.65472
  CHANNELS 6 Xposition Yposition Zposition Zrotation Xrotation Yrotation
  JOINT abdomen
  {
    OFFSET 0 -1.186 -1.5018
    CHANNELS 3 Zrotation Xrotation Yrotation
    JOINT abdomen2
    {
      OFFSET 0 9.964 0.2134
      CHANNELS 3 Zrotation Xrotation Yrotation
      JOINT chest
      {
        OFFSET 0 13.134 -3.2573
        CHANNELS 3 Zrotation Xrotation Yrotation
        JOINT neck
        {
          OFFSET 0 20.686 -1.6905
          CHANNELS 3 Zrotation Xrotation Yrotation
          JOINT head
          {
            OFFSET 0 7.238 -0.1237
            CHANNELS 3 Zrotation Xrotation Yrotation
            End Site
            {
              OFFSET 0 0 0
            }
          }
        }
        JOINT lCollar
        {
          OFFSET 1.7069 20.075 5.0056
          CHANNELS 3 Zrotation Xrotation Yrotation
          JOINT lShldr
          {
            OFFSET 13.6458 -0.047 -4.849
            CHANNELS 3 Zrotation Xrotation Yrotation
            JOINT lForeArm
            {
              OFFSET 28.3255 -0.9759 2.2888
              CHANNELS 3 Zrotation Xrotation Yrotation
              JOINT lHand
              {
                OFFSET 22.1583 -0.53 10.8316
                CHANNELS 3 Zrotation Xrotation Yrotation
                JOINT lThumb1
                {
                  OFFSET 0.786 0.112 2.5817
                  CHANNELS 3 Zrotation Xrotation Yrotation
                  JOINT lThumb2
                  {
                    OFFSET 0.3601 -0.878 4.2331
                    CHANNELS 3 Zrotation Xrotation Yrotation
                    JOINT lThumb2_End
                    {
                      OFFSET 1.8127 -1.216 2.2227
                      CHANNELS 3 Zrotation Xrotation Yrotation
                      End Site
                      {
                        OFFSET 0.0181 -0.0122 0.0222
                      }
                    }
                  }
                }
                JOINT lCarpal1
                {
                  OFFSET 0.9571 1.114 1.7695
                  CHANNELS 3 Zrotation Xrotation Yrotation
                  JOINT lIndex1
                  {
                    OFFSET 4.1246 0.487 4.1451
                    CHANNELS 3 Zrotation Xrotation Yrotation
                    JOINT lIndex2
                    {
                      OFFSET 3.4052 -1.454 2.7682
                      CHANNELS 3 Zrotation Xrotation Yrotation
                      JOINT lIndex2_End
                      {
                        OFFSET 1.4531 -1.795 1.2713
                        CHANNELS 3 Zrotation Xrotation Yrotation
                        End Site
                        {
                          OFFSET 0.0145 -0.0179 0.0127
                        }
                      }
                    }
                  }
                  JOINT lMid1
                  {
                    OFFSET 5.6954 0.21 2.1184
                    CHANNELS 3 Zrotation Xrotation Yrotation
                    JOINT lMid2
                    {
                      OFFSET 3.9766 -1.54 2.3863
                      CHANNELS 3 Zrotation Xrotation Yrotation
                      JOINT lMid2_End
                      {
                        OFFSET 1.4042 -1.926 1.125
                        CHANNELS 3 Zrotation Xrotation Yrotation
                        End Site
                        {
                          OFFSET 0.014 -0.0193 0.0113
                        }
                      }
                    }
                  }
                }
                JOINT lCarpal2
                {
                  OFFSET 2.0956 0.66 -0.3894
                  CHANNELS 3 Zrotation Xrotation Yrotation
                  JOINT lRing1
                  {
                    OFFSET 5.0395 -0.09 2.4971
                    CHANNELS 3 Zrotation Xrotation Yrotation
                    JOINT lRing2
                    {
                      OFFSET 3.7921 -1.552 1.4806
                      CHANNELS 3 Zrotation Xrotation Yrotation
                      JOINT lRing2_End
                      {
                        OFFSET 1.4655 -1.808 0.9609
                        CHANNELS 3 Zrotation Xrotation Yrotation
                        End Site
                        {
                          OFFSET 0.0147 -0.0181 0.0096
                        }
                      }
                    }
                  }
                  JOINT lPinky1
                  {
                    OFFSET 4.9141 -1.269 0.3591
                    CHANNELS 3 Zrotation Xrotation Yrotation
                    JOINT lPinky2
                    {
                      OFFSET 3.1477 -1.685 0.8462
                      CHANNELS 3 Zrotation Xrotation Yrotation
                      JOINT lPinky2_End
                      {
                        OFFSET 0.8055 -1.585 0.7955
                        CHANNELS 3 Zrotation Xrotation Yrotation
                        End Site
                        {
                          OFFSET 0.0081 -0.0158 0.008
                        }
                      }
                    }
                  }
                }
              }
            }
          }
        }
        JOINT rCollar
        {
          OFFSET -1.7069 20.075 5.0056
          CHANNELS 3 Zrotation Xrotation Yrotation
          JOINT rShldr
          {
            OFFSET -13.6458 -0.047 -4.849
            CHANNELS 3 Zrotation Xrotation Yrotation
            JOINT rForeArm
            {
              OFFSET -28.3255 -0.9759 2.2888
              CHANNELS 3 Zrotation Xrotation Yrotation
              JOINT rHand
              {
                OFFSET -22.1583 -0.53 10.8316
                CHANNELS 3 Zrotation Xrotation Yrotation
                JOINT rThumb1
                {
                  OFFSET -0.786 0.112 2.5817
                  CHANNELS 3 Zrotation Xrotation Yrotation
                  JOINT rThumb2
                  {
                    OFFSET -0.3601 -0.878 4.2331
                    CHANNELS 3 Zrotation Xrotation Yrotation
                    JOINT rThumb2_End
                    {
                      OFFSET -1.8127 -1.216 2.2227
                      CHANNELS 3 Zrotation Xrotation Yrotation
                      End Site
                      {
                        OFFSET -0.0181 -0.0122 0.0222
                      }
                    }
                  }
                }
                JOINT rCarpal1
                {
                  OFFSET -0.9571 1.114 1.7695
                  CHANNELS 3 Zrotation Xrotation Yrotation
                  JOINT rIndex1
                  {
                    OFFSET -4.1246 0.487 4.1451
                    CHANNELS 3 Zrotation Xrotation Yrotation
                    JOINT rIndex2
                    {
                      OFFSET -3.4052 -1.454 2.7682
                      CHANNELS 3 Zrotation Xrotation Yrotation
                      JOINT rIndex2_End
                      {
                        OFFSET -1.4531 -1.795 1.2713
                        CHANNELS 3 Zrotation Xrotation Yrotation
                        End Site
                        {
                          OFFSET -0.0145 -0.018 0.0127
                        }
                      }
                    }
                  }
                  JOINT rMid1
                  {
                    OFFSET -5.6954 0.21 2.1184
                    CHANNELS 3 Zrotation Xrotation Yrotation
                    JOINT rMid2
                    {
                      OFFSET -3.9766 -1.54 2.3863
                      CHANNELS 3 Zrotation Xrotation Yrotation
                      JOINT rMid2_End
                      {
                        OFFSET -1.4042 -1.926 1.125
                        CHANNELS 3 Zrotation Xrotation Yrotation
                        End Site
                        {
                          OFFSET -0.014 -0.0193 0.0113
                        }
                      }
                    }
                  }
                }
                JOINT rCarpal2
                {
                  OFFSET -2.0956 0.66 -0.3894
                  CHANNELS 3 Zrotation Xrotation Yrotation
                  JOINT rRing1
                  {
                    OFFSET -5.0395 -0.09 2.4971
                    CHANNELS 3 Zrotation Xrotation Yrotation
                    JOINT rRing2
                    {
                      OFFSET -3.7921 -1.552 1.4806
                      CHANNELS 3 Zrotation Xrotation Yrotation
                      JOINT rRing2_End
                      {
                        OFFSET -1.4655 -1.808 0.9609
                        CHANNELS 3 Zrotation Xrotation Yrotation
                        End Site
                        {
                          OFFSET -0.0147 -0.0181 0.0096
                        }
                      }
                    }
                  }
                  JOINT rPinky1
                  {
                    OFFSET -4.9141 -1.269 0.3592
                    CHANNELS 3 Zrotation Xrotation Yrotation
                    JOINT rPinky2
                    {
                      OFFSET -3.1477 -1.685 0.8462
                      CHANNELS 3 Zrotation Xrotation Yrotation
                      JOINT rPinky2_End
                      {
                        OFFSET -0.8055 -1.585 0.7955
                        CHANNELS 3 Zrotation Xrotation Yrotation
                        End Site
                        {
                          OFFSET -0.0081 -0.0158 0.008
                        }
                      }
                    }
                  }
                }
              }
            }
          }
        }
      }
    }
  }
  JOINT lThigh
  {
    OFFSET 8.367 -8.2066 0.5982
    CHANNELS 3 Zrotation Xrotation Yrotation
    JOINT lShin
    {
      OFFSET 2.1923 -43.463 -0.4932
      CHANNELS 3 Zrotation Xrotation Yrotation
      JOINT lFoot
      {
        OFFSET 0.7333 -45.8593 -2.6451
        CHANNELS 3 Zrotation Xrotation Yrotation
        End Site
        {
          OFFSET 2.6618 -4.2699 12.3931
        }
      }
    }
  }
  JOINT rThigh
  {
    OFFSET -8.367 -8.2066 0.5982
    CHANNELS 3 Zrotation Xrotation Yrotation
    JOINT rShin
    {
      OFFSET -2.1923 -43.463 -0.4931
      CHANNELS 3 Zrotation Xrotation Yrotation
      JOINT rFoot
      {
        OFFSET -0.7333 -45.8593 -2.6451
        CHANNELS 3 Zrotation Xrotation Yrotation
        End Site
        {
          OFFSET -2.6618 -4.2699 12.3931
        }
      }
    }
  }
}
MOTION
Frames:	5
Frame Time:	0.0333333
0 91.7903 2.51682 0 0 -0 0 0 -0 0 0 -0 0 0 -0 0 0 -0 0 0 -0 0 0 -0 1.66051 0.0835086 5.75766 -0.0175111 0.895433 15.7816 7.95139e-016 -1.98785e-016 -0 5.46658e-016 -3.97569e-016 -0 5.96354e-016 0 -0 3.97569e-016 1.98785e-016 9.54166e-015 1.49089e-016 -3.97569e-016 -0 6.4605e-016 0 3.18055e-015 5.96354e-016 0 3.18055e-015 8.94531e-016 -1.98785e-016 6.36111e-015 6.4605e-016 0 3.18055e-015 5.96354e-016 0 3.18055e-015 8.94531e-016 -1.98785e-016 6.36111e-015 1.49089e-016 -3.97569e-016 -0 6.4605e-016 0 3.18055e-015 5.96354e-016 0 3.18055e-015 8.94531e-016 -1.98785e-016 6.36111e-015 6.4605e-016 0 3.18055e-015 5.96354e-016 0 3.18055e-015 8.94531e-016 -1.98785e-016 6.36111e-015 0 0 -0 -1.4496 0.0636048 -5.0245 -1.74811 1.20616 -16.8394 -1.19271e-015 1.98785e-016 -3.18055e-015 -3.97569e-016 1.98785e-016 -3.18055e-015 -2.98177e-016 1.98785e-016 -3.18055e-015 -2.98177e-016 3.97569e-016 -0 4.96962e-016 0 -6.36111e-015 -9.93923e-017 3.97569e-016 -0 -8.94531e-016 5.96354e-016 -0 -3.97569e-016 3.97569e-016 -0 -9.93923e-017 3.97569e-016 -0 -8.94531e-016 5.96354e-016 -0 -3.97569e-016 3.97569e-016 -0 4.96962e-016 0 -6.36111e-015 -9.93923e-017 3.97569e-016 -0 -8.94531e-016 5.96354e-016 -0 -3.97569e-016 3.97569e-016 -0 -9.93923e-017 3.97569e-016 -0 -8.94531e-016 5.96354e-016 -0 -3.97569e-016 3.97569e-016 -0 -4.66111 -0.998717 0.12318 0.00986924 1.54847 0.176523 4.65186 -0.572283 -0.254274 4.66111 -0.998765 -0.123176 -0.00986867 1.54869 -0.176537 -4.65186 -0.572453 0.25427 
1.69654 20.1428 2.69716 0 0 -0 -0.26973 -0.156128 -0.206532 -0.540024 -0.311281 -0.413799 -0.540024 -0.311281 -0.413798 4.10395 12.9655 2.07471 4.47266e-016 1.59028e-015 -1.98785e-016 -8.00255 -0.0420647 0.275771 -61.354 -0.0326017 1.7562 0.0794776 0.658827 7.78172 -6.51219 2.57103 0.0273072 4.15716e-006 -1.64049e-006 -1.69977e-007 4.87022e-015 1.19271e-015 -1.59028e-015 4.13957e-006 -1.50692e-006 1.02625e-006 1.68967e-015 -3.97569e-016 -1.59028e-015 4.15716e-006 -1.64049e-006 -1.69977e-007 3.18055e-015 1.19271e-015 -0 4.13957e-006 -1.50692e-006 1.02625e-006 4.15716e-006 -1.64049e-006 -1.69977e-007 3.18055e-015 1.19271e-015 -0 4.13957e-006 -1.50692e-006 1.02625e-006 1.68967e-015 -3.97569e-016 -1.59028e-015 4.15716e-006 -1.64049e-006 -1.69977e-007 3.18055e-015 1.19271e-015 -0 4.13957e-006 -1.50692e-006 1.02625e-006 4.15716e-006 -1.64049e-006 -1.69977e-007 3.18055e-015 1.19271e-015 -0 4.13957e-006 -1.50692e-006 1.02625e-006 7.99918 -0.194696 1.51998e-005 69.5566 -1.2635 102.976 -1.87581 0.750331 -8.85204 6.49224 2.60876 0.0254108 -3.22119e-006 -4.83368e-006 -4.21862e-006 3.22119e-006 4.83368e-006 4.21862e-006 -3.22119e-006 -4.83368e-006 -4.21862e-006 7.95139e-016 -3.32964e-015 -2.38542e-015 -3.22119e-006 -4.83368e-006 -4.21862e-006 3.22119e-006 4.83368e-006 4.21862e-006 -3.22119e-006 -4.83368e-006 -4.21862e-006 -3.22119e-006 -4.83368e-006 -4.21862e-006 3.22119e-006 4.83368e-006 4.21862e-006 -3.22119e-006 -4.83368e-006 -4.21862e-006 7.95139e-016 -3.32964e-015 -2.38542e-015 -3.22119e-006 -4.83368e-006 -4.21862e-006 3.22119e-006 4.83368e-006 4.21862e-006 -3.22119e-006 -4.83368e-006 -4.21862e-006 -3.22119e-006 -4.83368e-006 -4.21862e-006 3.22119e-006 4.83368e-006 4.21862e-006 -3.22119e-006 -4.83368e-006 -4.21862e-006 -60.8823 -85.199 -43.3712 170.325 21.157 -152.297 -22.582 52.5787 35.9841 60.6684 -85.1992 43.1558 -170.32 21.1743 152.288 22.5721 52.5803 -35.9843 
1.69654 20.1428 2.69716 0 0 -0 -0.26973 -0.156128 -0.206532 -0.540024 -0.311281 -0.413799 -0.540024 -0.311281 -0.413798 4.1508 12.9567 2.21826 -4.24467e-007 -8.45874e-007 -1.2764e-007 -8.00255 -0.0420647 0.275771 -61.354 -0.0326011 1.7562 0.0794816 0.658825 7.78172 -6.51218 2.57103 0.0273097 -3.22e-006 -7.99302e-008 5.20031e-007 2.43511e-015 -7.95139e-016 -0 3.22e-006 7.99302e-008 -5.20031e-007 -3.32964e-015 7.95139e-016 1.59028e-015 -3.22e-006 -7.99302e-008 5.20031e-007 2.33572e-015 -3.97569e-016 -0 3.22e-006 7.99302e-008 -5.20031e-007 -3.22e-006 -7.99302e-008 5.20031e-007 2.33572e-015 -3.97569e-016 -0 3.22e-006 7.99302e-008 -5.20031e-007 -3.32964e-015 7.95139e-016 1.59028e-015 -3.22e-006 -7.99302e-008 5.20031e-007 2.33572e-015 -3.97569e-016 -0 3.22e-006 7.99302e-008 -5.20031e-007 -3.22e-006 -7.99302e-008 5.20031e-007 2.33572e-015 -3.97569e-016 -0 3.22e-006 7.99302e-008 -5.20031e-007 7.99918 -0.194696 1.51949e-005 69.5566 -1.26351 102.976 -1.87581 0.750317 -8.85205 6.49223 2.60875 0.0254077 7.95139e-016 -6.70898e-016 -0 5.96354e-016 -3.77691e-015 -1.59028e-015 -0 -3.80176e-015 -0 7.95139e-016 -6.4605e-016 -0 2.78299e-015 -3.598e-014 1.11319e-014 1.98785e-016 -1.3418e-015 -0 -1.98785e-016 -1.26725e-015 7.95139e-016 2.78299e-015 -3.598e-014 1.11319e-014 1.98785e-016 -1.3418e-015 -0 -1.98785e-016 -1.26725e-015 7.95139e-016 7.95139e-016 -6.4605e-016 -0 2.78299e-015 -3.598e-014 1.11319e-014 1.98785e-016 -1.3418e-015 -0 -1.98785e-016 -1.26725e-015 7.95139e-016 2.78299e-015 -3.598e-014 1.11319e-014 1.98785e-016 -1.3418e-015 -0 -1.98785e-016 -1.26725e-015 7.95139e-016 -60.8823 -85.199 -43.3712 170.325 21.157 -152.297 -22.582 52.5787 35.9841 60.6684 -85.1992 43.1558 -170.32 21.1743 152.288 22.5721 52.5803 -35.9843 
1.69654 20.1428 2.69716 0 0 -0 -0.26973 -0.156128 -0.206532 -0.540024 -0.311281 -0.413799 -0.540024 -0.311281 -0.413798 4.19769 12.948 2.36185 -4.01237e-007 1.37232e-007 -3.99211e-008 -8.00255 -0.0420647 0.275771 -61.354 -0.0326011 1.7562 0.0794816 0.658825 7.78172 -6.51218 2.57103 0.0273097 -3.22e-006 -7.99302e-008 5.20031e-007 2.43511e-015 -7.95139e-016 -0 3.22e-006 7.99302e-008 -5.20031e-007 -3.32964e-015 7.95139e-016 1.59028e-015 -3.22e-006 -7.99302e-008 5.20031e-007 2.33572e-015 -3.97569e-016 -0 3.22e-006 7.99302e-008 -5.20031e-007 -3.22e-006 -7.99302e-008 5.20031e-007 2.33572e-015 -3.97569e-016 -0 3.22e-006 7.99302e-008 -5.20031e-007 -3.32964e-015 7.95139e-016 1.59028e-015 -3.22e-006 -7.99302e-008 5.20031e-007 2.33572e-015 -3.97569e-016 -0 3.22e-006 7.99302e-008 -5.20031e-007 -3.22e-006 -7.99302e-008 5.20031e-007 2.33572e-015 -3.97569e-016 -0 3.22e-006 7.99302e-008 -5.20031e-007 7.99918 -0.194696 1.51949e-005 69.5566 -1.26351 102.976 -1.87581 0.750317 -8.85205 6.49223 2.60875 0.0254077 7.95139e-016 -6.70898e-016 -0 5.96354e-016 -3.77691e-015 -1.59028e-015 -0 -3.80176e-015 -0 7.95139e-016 -6.4605e-016 -0 2.78299e-015 -3.598e-014 1.11319e-014 1.98785e-016 -1.3418e-015 -0 -1.98785e-016 -1.26725e-015 7.95139e-016 2.78299e-015 -3.598e-014 1.11319e-014 1.98785e-016 -1.3418e-015 -0 -1.98785e-016 -1.26725e-015 7.95139e-016 7.95139e-016 -6.4605e-016 -0 2.78299e-015 -3.598e-014 1.11319e-014 1.98785e-016 -1.3418e-015 -0 -1.98785e-016 -1.26725e-015 7.95139e-016 2.78299e-015 -3.598e-014 1.11319e-014 1.98785e-016 -1.3418e-015 -0 -1.98785e-016 -1.26725e-015 7.95139e-016 -60.8823 -85.199 -43.3712 170.325 21.157 -152.297 -22.582 52.5787 35.9841 60.6684 -85.1992 43.1558 -170.32 21.1743 152.288 22.5721 52.5803 -35.9843 
1.69654 20.1428 2.69716 0 0 -0 -0.26973 -0.156128 -0.206532 -0.540024 -0.311281 -0.413799 -0.540024 -0.311281 -0.413798 4.2446 12.9396 2.50547 4.65034e-007 2.53903e-006 -2.79597e-008 -8.00255 -0.0420647 0.275771 -61.354 -0.0326011 1.7562 0.0794816 0.658825 7.78172 -6.51218 2.57103 0.0273097 -3.22e-006 -7.99302e-008 5.20031e-007 2.43511e-015 -7.95139e-016 -0 3.22e-006 7.99302e-008 -5.20031e-007 -3.32964e-015 7.95139e-016 1.59028e-015 -3.22e-006 -7.99302e-008 5.20031e-007 2.33572e-015 -3.97569e-016 -0 3.22e-006 7.99302e-008 -5.20031e-007 -3.22e-006 -7.99302e-008 5.20031e-007 2.33572e-015 -3.97569e-016 -0 3.22e-006 7.99302e-008 -5.20031e-007 -3.32964e-015 7.95139e-016 1.59028e-015 -3.22e-006 -7.99302e-008 5.20031e-007 2.33572e-015 -3.97569e-016 -0 3.22e-006 7.99302e-008 -5.20031e-007 -3.22e-006 -7.99302e-008 5.20031e-007 2.33572e-015 -3.97569e-016 -0 3.22e-006 7.99302e-008 -5.20031e-007 7.99918 -0.194696 1.51949e-005 69.5566 -1.26351 102.976 -1.87581 0.750317 -8.85205 6.49223 2.60875 0.0254077 7.95139e-016 -6.70898e-016 -0 5.96354e-016 -3.77691e-015 -1.59028e-015 -0 -3.80176e-015 -0 7.95139e-016 -6.4605e-016 -0 2.78299e-015 -3.598e-014 1.11319e-014 1.98785e-016 -1.3418e-015 -0 -1.98785e-016 -1.26725e-015 7.95139e-016 2.78299e-015 -3.598e-014 1.11319e-014 1.98785e-016 -1.3418e-015 -0 -1.98785e-016 -1.26725e-015 7.95139e-016 7.95139e-016 -6.4605e-016 -0 2.78299e-015 -3.598e-014 1.11319e-014 1.98785e-016 -1.3418e-015 -0 -1.98785e-016 -1.26725e-015 7.95139e-016 2.78299e-015 -3.598e-014 1.11319e-014 1.98785e-016 -1.3418e-015 -0 -1.98785e-016 -1.26725e-015 7.95139e-016 -60.8823 -85.199 -43.3712 170.325 21.157 -152.297 -22.582 52.5787 35.9841 60.6684 -85.1992 43.1558 -170.32 21.1743 152.288 22.5721 52.5803 -35.9843 
